<svg xmlns="http://www.w3.org/2000/svg" viewBox="0 0 260 235.86"><defs><style>.cls-1{fill:#2e3192;}</style></defs><g id="Capa_2" data-name="Capa 2"><g id="Layer_1" data-name="Layer 1"><path class="cls-1" d="M208.82,8.26c24.27,6.68,51.36,15.65,51.18,34.29-.18,18.47-27.44,46.61-30.6,72.81s17.94,50.65,14.77,63.49c-3,12.83-30.42,14.42-51.53,12.66s-36-6.69-57.85,5.1c-21.63,11.78-50.3,40.45-66.3,39.21-16.18-1-19.7-32-33.24-56.8S-1.51,135.76.08,118c1.58-17.59,28-34.47,47.83-48A580.2,580.2,0,0,0,95.75,33.58C110.17,21.27,126,7,144.46,2.11,163.1-2.82,184.55,1.58,208.82,8.26Z"/></g></g></svg>